<?xml version="1.0" encoding="UTF-8"?>
<svg xmlns="http://www.w3.org/2000/svg" version="1.1" viewBox="0 0 509 306.67">
  <defs>
    <style>
      .cls-1 {
        fill: #7fcff5;
      }

      .cls-2 {
        fill: #2b3179;
      }
    </style>
  </defs>
  <g>
    <g id="Calque_1">
      <g>
        <path class="cls-2" d="M201.4,36.72c-49.58.57-80.34,19.89-91.99,59.14-2.91,10.77-4.31,21.9-4.17,33.05-.4,51.53-.17,103.03-.17,154.56v19.35H6.51c-.84-2.17-1.42-4.43-1.72-6.73.24-63.25-1.62-126.59,1.68-189.7C8.84,60.65,36.07,28.54,78.54,11.54,121.02-5.46,160.77,2.05,196.75,30.05c1.28,1.03,2.41,2.23,3.37,3.57.57.97,1,2.01,1.28,3.1ZM468.99,36.72c-69.34-3.37-101.95,47.12-96.9,97.28,1.14,17.34,1.14,34.73,0,52.07-.71,24.5-14.81,42.51-36.69,48.64-31.81,8.99-62.67-12.69-63.65-45.74-1.26-26.25-1.11-52.56.44-78.8,3.67-46.52,28.27-79.87,71.19-97.61,43.55-18.11,84.38-10.74,121.17,19.02,1.64,1.57,3.13,3.3,4.44,5.15Z"/>
        <path class="cls-1" d="M338.06,269.54c-40.39,34.7-83.04,43.76-128.98,24.3-45.41-19.32-68.83-55.77-70.95-105.22-.98-22.42-.4-44.87,0-67.32.4-29.12,21.17-50.89,48.81-51.73,28.74-.84,50.49,19.99,51.5,50.49.71,17.91.3,35.88.34,53.85-.07,63.31,32.95,96.16,99.29,95.63ZM504.57,303.09h-97.81c-.79-3.99-1.32-8.03-1.58-12.08,0-57.22-.37-114.24,0-171.36.2-29.18,21.61-50.08,49.75-50.08s49.41,21.21,49.51,50.29c.3,60.45.13,120.9.13,183.24Z"/>
      </g>
    </g>
  </g>
</svg>